<svg width="37" height="38" viewBox="0 0 37 38" fill="none" xmlns="http://www.w3.org/2000/svg">
<circle cx="18.3379" cy="18.6305" r="6.87684" fill="#D9D9D9" stroke="black" stroke-width="4"/>
<mask id="path-2-outside-1_40_3" maskUnits="userSpaceOnUse" x="0" y="14.8779" width="37" height="23" fill="black">
<rect fill="white" y="14.8779" width="37" height="23"/>
<path d="M32.5783 19.167C32.5783 21.0435 32.2087 22.9016 31.4906 24.6352C30.7725 26.3688 29.72 27.9441 28.3931 29.2709C27.0662 30.5978 25.491 31.6503 23.7574 32.3684C22.0237 33.0865 20.1656 33.4561 18.2891 33.4561C16.4127 33.4561 14.5546 33.0865 12.8209 32.3684C11.0873 31.6503 9.51206 30.5978 8.18519 29.2709C6.85832 27.9441 5.80579 26.3688 5.0877 24.6352C4.3696 22.9016 4 21.0435 4 19.167H11.4878C11.4878 20.0602 11.6637 20.9446 12.0055 21.7697C12.3473 22.5949 12.8483 23.3447 13.4799 23.9763C14.1114 24.6078 14.8612 25.1088 15.6864 25.4506C16.5116 25.7924 17.396 25.9683 18.2891 25.9683C19.1823 25.9683 20.0667 25.7924 20.8919 25.4506C21.7171 25.1088 22.4668 24.6078 23.0984 23.9763C23.73 23.3447 24.2309 22.5949 24.5727 21.7697C24.9145 20.9446 25.0905 20.0602 25.0905 19.167H32.5783Z"/>
</mask>
<path d="M32.5783 19.167C32.5783 21.0435 32.2087 22.9016 31.4906 24.6352C30.7725 26.3688 29.72 27.9441 28.3931 29.2709C27.0662 30.5978 25.491 31.6503 23.7574 32.3684C22.0237 33.0865 20.1656 33.4561 18.2891 33.4561C16.4127 33.4561 14.5546 33.0865 12.8209 32.3684C11.0873 31.6503 9.51206 30.5978 8.18519 29.2709C6.85832 27.9441 5.80579 26.3688 5.0877 24.6352C4.3696 22.9016 4 21.0435 4 19.167H11.4878C11.4878 20.0602 11.6637 20.9446 12.0055 21.7697C12.3473 22.5949 12.8483 23.3447 13.4799 23.9763C14.1114 24.6078 14.8612 25.1088 15.6864 25.4506C16.5116 25.7924 17.396 25.9683 18.2891 25.9683C19.1823 25.9683 20.0667 25.7924 20.8919 25.4506C21.7171 25.1088 22.4668 24.6078 23.0984 23.9763C23.73 23.3447 24.2309 22.5949 24.5727 21.7697C24.9145 20.9446 25.0905 20.0602 25.0905 19.167H32.5783Z" fill="white"/>
<path d="M32.5783 19.167C32.5783 21.0435 32.2087 22.9016 31.4906 24.6352C30.7725 26.3688 29.72 27.9441 28.3931 29.2709C27.0662 30.5978 25.491 31.6503 23.7574 32.3684C22.0237 33.0865 20.1656 33.4561 18.2891 33.4561C16.4127 33.4561 14.5546 33.0865 12.8209 32.3684C11.0873 31.6503 9.51206 30.5978 8.18519 29.2709C6.85832 27.9441 5.80579 26.3688 5.0877 24.6352C4.3696 22.9016 4 21.0435 4 19.167H11.4878C11.4878 20.0602 11.6637 20.9446 12.0055 21.7697C12.3473 22.5949 12.8483 23.3447 13.4799 23.9763C14.1114 24.6078 14.8612 25.1088 15.6864 25.4506C16.5116 25.7924 17.396 25.9683 18.2891 25.9683C19.1823 25.9683 20.0667 25.7924 20.8919 25.4506C21.7171 25.1088 22.4668 24.6078 23.0984 23.9763C23.73 23.3447 24.2309 22.5949 24.5727 21.7697C24.9145 20.9446 25.0905 20.0602 25.0905 19.167H32.5783Z" stroke="black" stroke-width="8" mask="url(#path-2-outside-1_40_3)"/>
<mask id="path-3-outside-2_40_3" maskUnits="userSpaceOnUse" x="0" y="-0.421692" width="37" height="23" fill="black">
<rect fill="white" y="-0.421692" width="37" height="23"/>
<path d="M32.5783 18.2892C32.5783 16.4127 32.2087 14.5546 31.4906 12.821C30.7725 11.0873 29.72 9.51209 28.3931 8.18522C27.0662 6.85835 25.491 5.80582 23.7574 5.08773C22.0237 4.36963 20.1656 4.00003 18.2891 4.00003C16.4127 4.00003 14.5546 4.36963 12.8209 5.08773C11.0873 5.80582 9.51206 6.85835 8.18519 8.18522C6.85832 9.51209 5.80579 11.0873 5.0877 12.821C4.3696 14.5546 4 16.4127 4 18.2892H11.4878C11.4878 17.396 11.6637 16.5116 12.0055 15.6864C12.3473 14.8612 12.8483 14.1115 13.4799 13.4799C14.1114 12.8483 14.8612 12.3474 15.6864 12.0056C16.5116 11.6638 17.396 11.4878 18.2891 11.4878C19.1823 11.4878 20.0667 11.6638 20.8919 12.0056C21.7171 12.3474 22.4668 12.8483 23.0984 13.4799C23.73 14.1115 24.2309 14.8612 24.5727 15.6864C24.9145 16.5116 25.0905 17.396 25.0905 18.2892H32.5783Z"/>
</mask>
<path d="M32.5783 18.2892C32.5783 16.4127 32.2087 14.5546 31.4906 12.821C30.7725 11.0873 29.72 9.51209 28.3931 8.18522C27.0662 6.85835 25.491 5.80582 23.7574 5.08773C22.0237 4.36963 20.1656 4.00003 18.2891 4.00003C16.4127 4.00003 14.5546 4.36963 12.8209 5.08773C11.0873 5.80582 9.51206 6.85835 8.18519 8.18522C6.85832 9.51209 5.80579 11.0873 5.0877 12.821C4.3696 14.5546 4 16.4127 4 18.2892H11.4878C11.4878 17.396 11.6637 16.5116 12.0055 15.6864C12.3473 14.8612 12.8483 14.1115 13.4799 13.4799C14.1114 12.8483 14.8612 12.3474 15.6864 12.0056C16.5116 11.6638 17.396 11.4878 18.2891 11.4878C19.1823 11.4878 20.0667 11.6638 20.8919 12.0056C21.7171 12.3474 22.4668 12.8483 23.0984 13.4799C23.73 14.1115 24.2309 14.8612 24.5727 15.6864C24.9145 16.5116 25.0905 17.396 25.0905 18.2892H32.5783Z" fill="#FF0000"/>
<path d="M32.5783 18.2892C32.5783 16.4127 32.2087 14.5546 31.4906 12.821C30.7725 11.0873 29.72 9.51209 28.3931 8.18522C27.0662 6.85835 25.491 5.80582 23.7574 5.08773C22.0237 4.36963 20.1656 4.00003 18.2891 4.00003C16.4127 4.00003 14.5546 4.36963 12.8209 5.08773C11.0873 5.80582 9.51206 6.85835 8.18519 8.18522C6.85832 9.51209 5.80579 11.0873 5.0877 12.821C4.3696 14.5546 4 16.4127 4 18.2892H11.4878C11.4878 17.396 11.6637 16.5116 12.0055 15.6864C12.3473 14.8612 12.8483 14.1115 13.4799 13.4799C14.1114 12.8483 14.8612 12.3474 15.6864 12.0056C16.5116 11.6638 17.396 11.4878 18.2891 11.4878C19.1823 11.4878 20.0667 11.6638 20.8919 12.0056C21.7171 12.3474 22.4668 12.8483 23.0984 13.4799C23.73 14.1115 24.2309 14.8612 24.5727 15.6864C24.9145 16.5116 25.0905 17.396 25.0905 18.2892H32.5783Z" stroke="black" stroke-width="8" mask="url(#path-3-outside-2_40_3)"/>
</svg>
